# xmcd CD database file
#
# Track frame offsets:
#	182
#	41412
#	76910
#	120987
#	153037
#	189237
#	230340
#
# Disc length: 3546 seconds
#
# Revision: 0
# Processed by: cddbd v1.4PL0 Copyright (c) Steve Scherf et al.
# Submitted via: CDex 1.50beta10
#
DISCID=3e0dd807
DTITLE=Rick Margitza - Work It
DYEAR=1995
DGENRE=Jazz
TTITLE0=Steppin' Out
TTITLE1=Work It
TTITLE2=My Foolish Heart
TTITLE3=Your Lady
TTITLE4=It Could Happen To You
TTITLE5=Last Season, Widows Walk
TTITLE6=A Sour Mystery of Bird
EXTD=YEAR: 1995
EXTT0=
EXTT1=
EXTT2=
EXTT3=
EXTT4=
EXTT5=
EXTT6=
PLAYORDER=
